<?xml version="1.0" standalone="no"?>
<!DOCTYPE svg PUBLIC "-//W3C//DTD SVG 20010904//EN"
 "http://www.w3.org/TR/2001/REC-SVG-20010904/DTD/svg10.dtd">
<svg version="1.0" xmlns="http://www.w3.org/2000/svg"
 width="1680.000000pt" height="640.000000pt" viewBox="0 0 1680.000000 640.000000"
 preserveAspectRatio="xMidYMid meet">

<g transform="translate(0.000000,640.000000) scale(0.100000,-0.100000)"
fill="#000000" stroke="none">
<path d="M4040 5768 c0 -2 -1 -759 -1 -1683 l-1 -1680 288 0 289 0 2 1655 c1
910 -1 1667 -4 1683 l-5 27 -284 0 c-156 0 -284 -1 -284 -2z"/>
<path d="M6547 5763 c-4 -3 -7 -281 -7 -616 l0 -609 -65 70 c-77 83 -161 139
-265 175 -98 34 -125 38 -267 38 -340 0 -604 -177 -773 -520 -169 -342 -196
-895 -63 -1296 57 -173 130 -299 243 -419 117 -124 245 -194 414 -228 303 -60
593 58 758 308 l38 59 1 -40 c1 -22 4 -94 8 -160 l6 -120 270 0 270 0 3 1683
2 1682 -283 0 c-156 0 -287 -3 -290 -7z m-349 -1497 c227 -61 352 -305 352
-692 0 -334 -101 -564 -289 -657 -62 -30 -71 -32 -176 -32 -98 1 -117 4 -168
28 -79 36 -165 124 -212 217 -160 318 -107 853 103 1042 47 42 124 84 179 97
58 14 152 12 211 -3z"/>
<path d="M1692 5617 c-6 -7 -15 -30 -21 -53 -6 -22 -33 -110 -61 -195 -28 -84
-68 -208 -89 -274 -22 -66 -98 -300 -169 -520 -72 -220 -167 -515 -212 -655
-118 -365 -371 -1135 -441 -1338 -32 -95 -59 -175 -59 -178 0 -2 158 -3 352
-2 l351 3 33 100 c18 55 60 188 94 295 34 107 69 214 77 238 l16 42 557 0 558
0 46 -147 c26 -82 75 -233 109 -338 l62 -190 265 -2 c146 -2 306 0 356 3 l92
6 -103 306 c-57 169 -154 462 -215 652 -330 1016 -383 1180 -399 1230 -57 168
-212 650 -315 975 -10 32 -18 41 -45 46 -60 12 -829 8 -839 -4z m468 -869 c18
-68 52 -184 75 -258 125 -394 255 -817 255 -825 0 -3 -167 -5 -371 -5 l-371 0
5 23 c3 12 30 101 60 197 98 312 236 760 274 892 15 54 31 98 34 98 3 0 20
-55 39 -122z"/>
<path d="M15530 5531 c-601 -64 -972 -586 -1039 -1461 -14 -188 -13 -288 4
-480 18 -203 28 -268 61 -403 93 -373 304 -648 588 -766 142 -59 213 -73 412
-78 145 -5 203 -2 285 12 220 36 396 128 538 281 199 213 293 494 278 839 -15
349 -153 620 -397 784 -155 103 -317 151 -515 152 -242 1 -407 -59 -562 -205
l-74 -70 7 55 c42 344 157 610 308 714 108 74 253 95 376 53 101 -34 176 -115
216 -232 l16 -47 306 3 307 3 -4 44 c-1 25 -11 77 -21 117 -89 348 -332 587
-678 665 -99 22 -298 32 -412 20z m205 -1633 c157 -52 252 -188 286 -408 20
-131 -5 -316 -57 -426 -36 -76 -120 -164 -191 -199 -75 -37 -208 -46 -299 -20
-205 58 -326 262 -327 550 -1 178 36 295 124 390 118 128 290 170 464 113z"/>
<path d="M8398 4815 c-347 -49 -602 -225 -766 -527 -242 -447 -203 -1155 86
-1544 143 -193 329 -314 581 -377 125 -31 407 -31 532 0 289 73 487 217 638
465 154 254 223 625 180 968 -60 486 -329 852 -713 970 -165 51 -372 69 -538
45z m352 -571 c143 -67 252 -229 293 -434 65 -320 -7 -656 -173 -814 -106
-101 -226 -139 -368 -118 -262 41 -419 277 -439 659 -16 303 96 582 273 684
89 50 127 59 244 56 92 -3 113 -7 170 -33z"/>
<path d="M13100 4820 c-333 -22 -569 -150 -693 -376 -128 -231 -103 -584 56
-779 117 -144 269 -221 616 -311 302 -78 413 -117 465 -163 62 -54 80 -182 36
-259 -50 -88 -149 -127 -320 -126 -82 0 -121 5 -178 23 -115 37 -204 131 -221
231 l-6 35 -294 3 -294 2 7 -65 c17 -167 88 -309 220 -440 98 -97 188 -152
316 -193 226 -73 567 -81 821 -21 254 60 455 239 535 477 21 62 27 102 31 207
6 156 -9 243 -62 354 -49 103 -97 163 -182 227 -130 98 -232 137 -630 239
-119 30 -236 64 -260 75 -60 26 -120 75 -140 113 -24 46 -21 126 7 175 46 81
125 115 275 115 197 1 313 -64 360 -200 l13 -38 287 -3 288 -2 -7 42 c-24 152
-75 276 -153 373 -56 69 -148 146 -215 181 -162 83 -414 122 -678 104z"/>
<path d="M11375 4760 l-60 -5 -1 -735 c0 -727 0 -736 -22 -815 -54 -193 -167
-292 -348 -303 -150 -8 -251 48 -310 173 -62 129 -63 150 -64 958 l0 727 -285
0 -285 0 0 -842 c0 -920 2 -958 57 -1113 78 -220 206 -353 404 -420 67 -22
108 -29 200 -33 158 -6 239 9 352 66 103 51 231 165 282 250 l30 50 10 -156
10 -157 273 -3 272 -2 0 1180 0 1180 -182 2 c-101 1 -203 2 -228 3 -25 0 -72
-2 -105 -5z"/>
</g>
</svg>
